<mxfile host="65bd71144e">
    <diagram id="x2ejT5EVNbOWOBBeCwr7" name="Page-1">
        <mxGraphModel dx="1173" dy="423" grid="1" gridSize="10" guides="1" tooltips="1" connect="1" arrows="1" fold="1" page="1" pageScale="1" pageWidth="850" pageHeight="1100" math="0" shadow="0">
            <root>
                <mxCell id="0"/>
                <mxCell id="1" parent="0"/>
                <mxCell id="2" value="" style="rounded=0;whiteSpace=wrap;html=1;" vertex="1" parent="1">
                    <mxGeometry x="220" y="110" width="440" height="180" as="geometry"/>
                </mxCell>
                <mxCell id="4" value="" style="rounded=0;whiteSpace=wrap;html=1;" vertex="1" parent="1">
                    <mxGeometry x="220" y="190" width="230" height="100" as="geometry"/>
                </mxCell>
                <mxCell id="5" value="" style="rounded=0;whiteSpace=wrap;html=1;" vertex="1" parent="1">
                    <mxGeometry x="450" y="190" width="210" height="100" as="geometry"/>
                </mxCell>
                <mxCell id="7" value="" style="endArrow=none;html=1;exitX=1;exitY=0;exitDx=0;exitDy=0;entryX=1;entryY=0;entryDx=0;entryDy=0;" edge="1" parent="1" source="4" target="2">
                    <mxGeometry width="50" height="50" relative="1" as="geometry">
                        <mxPoint x="400" y="180" as="sourcePoint"/>
                        <mxPoint x="450" y="130" as="targetPoint"/>
                    </mxGeometry>
                </mxCell>
                <mxCell id="8" value="" style="endArrow=none;html=1;exitX=1;exitY=0;exitDx=0;exitDy=0;entryX=0;entryY=0;entryDx=0;entryDy=0;" edge="1" parent="1" source="4" target="2">
                    <mxGeometry width="50" height="50" relative="1" as="geometry">
                        <mxPoint x="400" y="180" as="sourcePoint"/>
                        <mxPoint x="450" y="130" as="targetPoint"/>
                    </mxGeometry>
                </mxCell>
                <mxCell id="9" value="regex(email)" style="text;html=1;strokeColor=none;fillColor=none;align=center;verticalAlign=middle;whiteSpace=wrap;rounded=0;" vertex="1" parent="1">
                    <mxGeometry x="410" y="130" width="60" height="30" as="geometry"/>
                </mxCell>
                <mxCell id="10" value="NO" style="text;html=1;strokeColor=none;fillColor=none;align=center;verticalAlign=middle;whiteSpace=wrap;rounded=0;" vertex="1" parent="1">
                    <mxGeometry x="260" y="150" width="60" height="30" as="geometry"/>
                </mxCell>
                <mxCell id="11" value="valid := False&lt;br&gt;email_error := &quot;Vul alsjeblieft een geldig email adres in&quot;&lt;br&gt;return valid, email_error" style="text;html=1;strokeColor=none;fillColor=none;align=left;verticalAlign=middle;whiteSpace=wrap;rounded=0;" vertex="1" parent="1">
                    <mxGeometry x="230" y="200" width="210" height="80" as="geometry"/>
                </mxCell>
                <mxCell id="12" value="valid := True&lt;br&gt;email_error := &quot;&quot;&lt;br&gt;return valid, email_error" style="text;html=1;strokeColor=none;fillColor=none;align=left;verticalAlign=middle;whiteSpace=wrap;rounded=0;" vertex="1" parent="1">
                    <mxGeometry x="460" y="220" width="160" height="30" as="geometry"/>
                </mxCell>
                <mxCell id="13" value="" style="rounded=0;whiteSpace=wrap;html=1;" vertex="1" parent="1">
                    <mxGeometry x="220" y="350" width="440" height="180" as="geometry"/>
                </mxCell>
                <mxCell id="14" value="handle_phone(phone)" style="text;html=1;strokeColor=none;fillColor=none;align=center;verticalAlign=middle;whiteSpace=wrap;rounded=0;" vertex="1" parent="1">
                    <mxGeometry x="270" y="320" width="60" height="30" as="geometry"/>
                </mxCell>
                <mxCell id="15" value="numeric(phone)" style="text;html=1;strokeColor=none;fillColor=none;align=center;verticalAlign=middle;whiteSpace=wrap;rounded=0;" vertex="1" parent="1">
                    <mxGeometry x="410" y="360" width="60" height="30" as="geometry"/>
                </mxCell>
                <mxCell id="17" value="" style="rounded=0;whiteSpace=wrap;html=1;" vertex="1" parent="1">
                    <mxGeometry x="220" y="420" width="230" height="110" as="geometry"/>
                </mxCell>
                <mxCell id="18" value="" style="rounded=0;whiteSpace=wrap;html=1;" vertex="1" parent="1">
                    <mxGeometry x="450" y="420" width="210" height="110" as="geometry"/>
                </mxCell>
                <mxCell id="19" value="" style="endArrow=none;html=1;exitX=0;exitY=0;exitDx=0;exitDy=0;entryX=1;entryY=0;entryDx=0;entryDy=0;" edge="1" parent="1" source="18" target="13">
                    <mxGeometry width="50" height="50" relative="1" as="geometry">
                        <mxPoint x="400" y="290" as="sourcePoint"/>
                        <mxPoint x="450" y="240" as="targetPoint"/>
                    </mxGeometry>
                </mxCell>
                <mxCell id="20" value="" style="endArrow=none;html=1;exitX=0;exitY=0;exitDx=0;exitDy=0;entryX=0;entryY=0;entryDx=0;entryDy=0;" edge="1" parent="1" source="13" target="18">
                    <mxGeometry width="50" height="50" relative="1" as="geometry">
                        <mxPoint x="400" y="290" as="sourcePoint"/>
                        <mxPoint x="450" y="240" as="targetPoint"/>
                    </mxGeometry>
                </mxCell>
                <mxCell id="22" value="YES" style="text;html=1;strokeColor=none;fillColor=none;align=center;verticalAlign=middle;whiteSpace=wrap;rounded=0;" vertex="1" parent="1">
                    <mxGeometry x="580" y="380" width="60" height="30" as="geometry"/>
                </mxCell>
                <mxCell id="24" value="YES" style="text;html=1;strokeColor=none;fillColor=none;align=center;verticalAlign=middle;whiteSpace=wrap;rounded=0;" vertex="1" parent="1">
                    <mxGeometry x="580" y="150" width="60" height="30" as="geometry"/>
                </mxCell>
                <mxCell id="25" value="NO" style="text;html=1;strokeColor=none;fillColor=none;align=center;verticalAlign=middle;whiteSpace=wrap;rounded=0;" vertex="1" parent="1">
                    <mxGeometry x="260" y="380" width="60" height="30" as="geometry"/>
                </mxCell>
                <mxCell id="27" value="valid := False&lt;br&gt;phone_error := &quot;Vul alsjeblieft een telefoonnummer in met alleen cijfers&quot;&lt;br&gt;return valid, phone_error" style="text;html=1;strokeColor=none;fillColor=none;align=left;verticalAlign=middle;whiteSpace=wrap;rounded=0;" vertex="1" parent="1">
                    <mxGeometry x="230" y="460" width="270" height="30" as="geometry"/>
                </mxCell>
                <mxCell id="29" value="" style="rounded=0;whiteSpace=wrap;html=1;" vertex="1" parent="1">
                    <mxGeometry x="220" y="670" width="440" height="740" as="geometry"/>
                </mxCell>
                <mxCell id="30" value="" style="rounded=0;whiteSpace=wrap;html=1;" vertex="1" parent="1">
                    <mxGeometry x="220" y="740" width="230" height="60" as="geometry"/>
                </mxCell>
                <mxCell id="31" value="" style="endArrow=none;html=1;exitX=1;exitY=0;exitDx=0;exitDy=0;entryX=1;entryY=0;entryDx=0;entryDy=0;" edge="1" parent="1" source="30" target="29">
                    <mxGeometry width="50" height="50" relative="1" as="geometry">
                        <mxPoint x="400" y="540" as="sourcePoint"/>
                        <mxPoint x="450" y="490" as="targetPoint"/>
                    </mxGeometry>
                </mxCell>
                <mxCell id="32" value="" style="endArrow=none;html=1;exitX=0;exitY=0;exitDx=0;exitDy=0;entryX=1;entryY=0;entryDx=0;entryDy=0;" edge="1" parent="1" source="29" target="30">
                    <mxGeometry width="50" height="50" relative="1" as="geometry">
                        <mxPoint x="400" y="540" as="sourcePoint"/>
                        <mxPoint x="450" y="490" as="targetPoint"/>
                    </mxGeometry>
                </mxCell>
                <mxCell id="33" value="handle_post(straat, huisnummer, toevoeging, postcode, gemeente)" style="text;html=1;strokeColor=none;fillColor=none;align=center;verticalAlign=middle;whiteSpace=wrap;rounded=0;" vertex="1" parent="1">
                    <mxGeometry x="210" y="580" width="390" height="30" as="geometry"/>
                </mxCell>
                <mxCell id="34" value="" style="rounded=0;whiteSpace=wrap;html=1;" vertex="1" parent="1">
                    <mxGeometry x="450" y="740" width="210" height="60" as="geometry"/>
                </mxCell>
                <mxCell id="35" value="empty(straat)" style="text;html=1;strokeColor=none;fillColor=none;align=center;verticalAlign=middle;whiteSpace=wrap;rounded=0;" vertex="1" parent="1">
                    <mxGeometry x="410" y="680" width="60" height="30" as="geometry"/>
                </mxCell>
                <mxCell id="36" value="NO" style="text;html=1;strokeColor=none;fillColor=none;align=center;verticalAlign=middle;whiteSpace=wrap;rounded=0;" vertex="1" parent="1">
                    <mxGeometry x="240" y="700" width="60" height="30" as="geometry"/>
                </mxCell>
                <mxCell id="37" value="YES" style="text;html=1;strokeColor=none;fillColor=none;align=center;verticalAlign=middle;whiteSpace=wrap;rounded=0;" vertex="1" parent="1">
                    <mxGeometry x="590" y="700" width="60" height="30" as="geometry"/>
                </mxCell>
                <mxCell id="38" value="" style="rounded=0;whiteSpace=wrap;html=1;" vertex="1" parent="1">
                    <mxGeometry x="220" y="610" width="440" height="60" as="geometry"/>
                </mxCell>
                <mxCell id="39" value="valid := True&lt;br&gt;post_error := &quot;&quot;" style="text;html=1;strokeColor=none;fillColor=none;align=center;verticalAlign=middle;whiteSpace=wrap;rounded=0;" vertex="1" parent="1">
                    <mxGeometry x="367.5" y="620" width="162.5" height="40" as="geometry"/>
                </mxCell>
                <mxCell id="40" value="valid := False&lt;br&gt;post_error := &quot;Vul alsjeblieft je straatnaam in&quot;" style="text;html=1;strokeColor=none;fillColor=none;align=left;verticalAlign=middle;whiteSpace=wrap;rounded=0;" vertex="1" parent="1">
                    <mxGeometry x="460" y="740" width="210" height="60" as="geometry"/>
                </mxCell>
                <mxCell id="43" value="-" style="text;html=1;strokeColor=none;fillColor=none;align=center;verticalAlign=middle;whiteSpace=wrap;rounded=0;" vertex="1" parent="1">
                    <mxGeometry x="305" y="755" width="60" height="30" as="geometry"/>
                </mxCell>
                <mxCell id="44" value="" style="rounded=0;whiteSpace=wrap;html=1;" vertex="1" parent="1">
                    <mxGeometry x="220" y="870" width="230" height="60" as="geometry"/>
                </mxCell>
                <mxCell id="45" value="" style="endArrow=none;html=1;exitX=1;exitY=0;exitDx=0;exitDy=0;entryX=1;entryY=0;entryDx=0;entryDy=0;" edge="1" parent="1" source="44">
                    <mxGeometry width="50" height="50" relative="1" as="geometry">
                        <mxPoint x="400" y="670" as="sourcePoint"/>
                        <mxPoint x="660" y="800" as="targetPoint"/>
                    </mxGeometry>
                </mxCell>
                <mxCell id="46" value="" style="endArrow=none;html=1;exitX=0;exitY=0;exitDx=0;exitDy=0;entryX=1;entryY=0;entryDx=0;entryDy=0;" edge="1" parent="1" target="44">
                    <mxGeometry width="50" height="50" relative="1" as="geometry">
                        <mxPoint x="220" y="800" as="sourcePoint"/>
                        <mxPoint x="450" y="620" as="targetPoint"/>
                    </mxGeometry>
                </mxCell>
                <mxCell id="47" value="empty(huisnummer)" style="text;html=1;strokeColor=none;fillColor=none;align=center;verticalAlign=middle;whiteSpace=wrap;rounded=0;" vertex="1" parent="1">
                    <mxGeometry x="410" y="810" width="60" height="30" as="geometry"/>
                </mxCell>
                <mxCell id="48" value="NO" style="text;html=1;strokeColor=none;fillColor=none;align=center;verticalAlign=middle;whiteSpace=wrap;rounded=0;" vertex="1" parent="1">
                    <mxGeometry x="240" y="830" width="60" height="30" as="geometry"/>
                </mxCell>
                <mxCell id="49" value="YES" style="text;html=1;strokeColor=none;fillColor=none;align=center;verticalAlign=middle;whiteSpace=wrap;rounded=0;" vertex="1" parent="1">
                    <mxGeometry x="590" y="830" width="60" height="30" as="geometry"/>
                </mxCell>
                <mxCell id="51" value="-" style="text;html=1;strokeColor=none;fillColor=none;align=center;verticalAlign=middle;whiteSpace=wrap;rounded=0;" vertex="1" parent="1">
                    <mxGeometry x="305" y="885" width="60" height="30" as="geometry"/>
                </mxCell>
                <mxCell id="52" value="" style="rounded=0;whiteSpace=wrap;html=1;" vertex="1" parent="1">
                    <mxGeometry x="450" y="870" width="210" height="60" as="geometry"/>
                </mxCell>
                <mxCell id="50" value="valid := False&lt;br&gt;post_error := &quot;Vul alsjeblieft je huisnummer in&quot;" style="text;html=1;strokeColor=none;fillColor=none;align=left;verticalAlign=middle;whiteSpace=wrap;rounded=0;" vertex="1" parent="1">
                    <mxGeometry x="460" y="870" width="190" height="60" as="geometry"/>
                </mxCell>
                <mxCell id="53" value="" style="rounded=0;whiteSpace=wrap;html=1;" vertex="1" parent="1">
                    <mxGeometry x="220" y="1000" width="230" height="60" as="geometry"/>
                </mxCell>
                <mxCell id="54" value="" style="endArrow=none;html=1;exitX=1;exitY=0;exitDx=0;exitDy=0;entryX=1;entryY=0;entryDx=0;entryDy=0;" edge="1" parent="1" source="53">
                    <mxGeometry width="50" height="50" relative="1" as="geometry">
                        <mxPoint x="400" y="800" as="sourcePoint"/>
                        <mxPoint x="660" y="930" as="targetPoint"/>
                    </mxGeometry>
                </mxCell>
                <mxCell id="55" value="" style="endArrow=none;html=1;exitX=0;exitY=0;exitDx=0;exitDy=0;entryX=1;entryY=0;entryDx=0;entryDy=0;" edge="1" parent="1" target="53">
                    <mxGeometry width="50" height="50" relative="1" as="geometry">
                        <mxPoint x="220" y="930" as="sourcePoint"/>
                        <mxPoint x="450" y="750" as="targetPoint"/>
                    </mxGeometry>
                </mxCell>
                <mxCell id="56" value="empty(postcode)" style="text;html=1;strokeColor=none;fillColor=none;align=center;verticalAlign=middle;whiteSpace=wrap;rounded=0;" vertex="1" parent="1">
                    <mxGeometry x="410" y="940" width="60" height="30" as="geometry"/>
                </mxCell>
                <mxCell id="57" value="NO" style="text;html=1;strokeColor=none;fillColor=none;align=center;verticalAlign=middle;whiteSpace=wrap;rounded=0;" vertex="1" parent="1">
                    <mxGeometry x="240" y="960" width="60" height="30" as="geometry"/>
                </mxCell>
                <mxCell id="58" value="YES" style="text;html=1;strokeColor=none;fillColor=none;align=center;verticalAlign=middle;whiteSpace=wrap;rounded=0;" vertex="1" parent="1">
                    <mxGeometry x="590" y="960" width="60" height="30" as="geometry"/>
                </mxCell>
                <mxCell id="59" value="-" style="text;html=1;strokeColor=none;fillColor=none;align=center;verticalAlign=middle;whiteSpace=wrap;rounded=0;" vertex="1" parent="1">
                    <mxGeometry x="305" y="1015" width="60" height="30" as="geometry"/>
                </mxCell>
                <mxCell id="61" value="" style="rounded=0;whiteSpace=wrap;html=1;" vertex="1" parent="1">
                    <mxGeometry x="450" y="1000" width="210" height="60" as="geometry"/>
                </mxCell>
                <mxCell id="60" value="valid := False&lt;br&gt;post_error := &quot;Vul alsjeblieft je postcode in&quot;" style="text;html=1;strokeColor=none;fillColor=none;align=left;verticalAlign=middle;whiteSpace=wrap;rounded=0;" vertex="1" parent="1">
                    <mxGeometry x="460" y="1000" width="190" height="60" as="geometry"/>
                </mxCell>
                <mxCell id="62" value="" style="rounded=0;whiteSpace=wrap;html=1;" vertex="1" parent="1">
                    <mxGeometry x="220" y="1130" width="230" height="60" as="geometry"/>
                </mxCell>
                <mxCell id="63" value="" style="endArrow=none;html=1;exitX=1;exitY=0;exitDx=0;exitDy=0;entryX=1;entryY=0;entryDx=0;entryDy=0;" edge="1" parent="1" source="62">
                    <mxGeometry width="50" height="50" relative="1" as="geometry">
                        <mxPoint x="400" y="930" as="sourcePoint"/>
                        <mxPoint x="660" y="1060" as="targetPoint"/>
                    </mxGeometry>
                </mxCell>
                <mxCell id="64" value="" style="endArrow=none;html=1;exitX=0;exitY=0;exitDx=0;exitDy=0;entryX=1;entryY=0;entryDx=0;entryDy=0;" edge="1" parent="1" target="62">
                    <mxGeometry width="50" height="50" relative="1" as="geometry">
                        <mxPoint x="220" y="1060" as="sourcePoint"/>
                        <mxPoint x="450" y="880" as="targetPoint"/>
                    </mxGeometry>
                </mxCell>
                <mxCell id="65" value="regex(postcode)" style="text;html=1;strokeColor=none;fillColor=none;align=center;verticalAlign=middle;whiteSpace=wrap;rounded=0;" vertex="1" parent="1">
                    <mxGeometry x="410" y="1070" width="60" height="30" as="geometry"/>
                </mxCell>
                <mxCell id="66" value="NO" style="text;html=1;strokeColor=none;fillColor=none;align=center;verticalAlign=middle;whiteSpace=wrap;rounded=0;" vertex="1" parent="1">
                    <mxGeometry x="240" y="1090" width="60" height="30" as="geometry"/>
                </mxCell>
                <mxCell id="67" value="YES" style="text;html=1;strokeColor=none;fillColor=none;align=center;verticalAlign=middle;whiteSpace=wrap;rounded=0;" vertex="1" parent="1">
                    <mxGeometry x="590" y="1090" width="60" height="30" as="geometry"/>
                </mxCell>
                <mxCell id="69" value="valid := False&lt;br&gt;post_error := &quot;Vul alsjeblieft je huisnummer in&quot;" style="text;html=1;strokeColor=none;fillColor=none;align=left;verticalAlign=middle;whiteSpace=wrap;rounded=0;" vertex="1" parent="1">
                    <mxGeometry x="230" y="1130" width="190" height="60" as="geometry"/>
                </mxCell>
                <mxCell id="70" value="" style="rounded=0;whiteSpace=wrap;html=1;" vertex="1" parent="1">
                    <mxGeometry x="450" y="1130" width="210" height="60" as="geometry"/>
                </mxCell>
                <mxCell id="68" value="-" style="text;html=1;strokeColor=none;fillColor=none;align=center;verticalAlign=middle;whiteSpace=wrap;rounded=0;" vertex="1" parent="1">
                    <mxGeometry x="540" y="1145" width="60" height="30" as="geometry"/>
                </mxCell>
                <mxCell id="71" value="" style="rounded=0;whiteSpace=wrap;html=1;" vertex="1" parent="1">
                    <mxGeometry x="220" y="1260" width="230" height="60" as="geometry"/>
                </mxCell>
                <mxCell id="72" value="" style="endArrow=none;html=1;exitX=1;exitY=0;exitDx=0;exitDy=0;entryX=1;entryY=0;entryDx=0;entryDy=0;" edge="1" parent="1" source="71">
                    <mxGeometry width="50" height="50" relative="1" as="geometry">
                        <mxPoint x="400" y="1060" as="sourcePoint"/>
                        <mxPoint x="660" y="1190" as="targetPoint"/>
                    </mxGeometry>
                </mxCell>
                <mxCell id="73" value="" style="endArrow=none;html=1;exitX=0;exitY=0;exitDx=0;exitDy=0;entryX=1;entryY=0;entryDx=0;entryDy=0;" edge="1" parent="1" target="71">
                    <mxGeometry width="50" height="50" relative="1" as="geometry">
                        <mxPoint x="220" y="1190" as="sourcePoint"/>
                        <mxPoint x="450" y="1010" as="targetPoint"/>
                    </mxGeometry>
                </mxCell>
                <mxCell id="74" value="empty(gemeente)" style="text;html=1;strokeColor=none;fillColor=none;align=center;verticalAlign=middle;whiteSpace=wrap;rounded=0;" vertex="1" parent="1">
                    <mxGeometry x="410" y="1200" width="60" height="30" as="geometry"/>
                </mxCell>
                <mxCell id="75" value="NO" style="text;html=1;strokeColor=none;fillColor=none;align=center;verticalAlign=middle;whiteSpace=wrap;rounded=0;" vertex="1" parent="1">
                    <mxGeometry x="240" y="1220" width="60" height="30" as="geometry"/>
                </mxCell>
                <mxCell id="76" value="YES" style="text;html=1;strokeColor=none;fillColor=none;align=center;verticalAlign=middle;whiteSpace=wrap;rounded=0;" vertex="1" parent="1">
                    <mxGeometry x="590" y="1220" width="60" height="30" as="geometry"/>
                </mxCell>
                <mxCell id="77" value="-" style="text;html=1;strokeColor=none;fillColor=none;align=center;verticalAlign=middle;whiteSpace=wrap;rounded=0;" vertex="1" parent="1">
                    <mxGeometry x="305" y="1275" width="60" height="30" as="geometry"/>
                </mxCell>
                <mxCell id="79" value="" style="rounded=0;whiteSpace=wrap;html=1;" vertex="1" parent="1">
                    <mxGeometry x="450" y="1260" width="210" height="60" as="geometry"/>
                </mxCell>
                <mxCell id="78" value="valid := False&lt;br&gt;post_error := &quot;Vul alsjeblieft je gemeente in&quot;" style="text;html=1;strokeColor=none;fillColor=none;align=left;verticalAlign=middle;whiteSpace=wrap;rounded=0;" vertex="1" parent="1">
                    <mxGeometry x="460" y="1260" width="190" height="60" as="geometry"/>
                </mxCell>
                <mxCell id="80" value="return valid, post_error" style="text;html=1;strokeColor=none;fillColor=none;align=center;verticalAlign=middle;whiteSpace=wrap;rounded=0;" vertex="1" parent="1">
                    <mxGeometry x="320" y="1350" width="250" height="30" as="geometry"/>
                </mxCell>
                <mxCell id="82" value="handle_email(email)" style="text;html=1;strokeColor=none;fillColor=none;align=center;verticalAlign=middle;whiteSpace=wrap;rounded=0;" vertex="1" parent="1">
                    <mxGeometry x="200" y="80" width="180" height="30" as="geometry"/>
                </mxCell>
                <mxCell id="83" value="" style="endArrow=none;html=1;exitX=1;exitY=0;exitDx=0;exitDy=0;entryX=0;entryY=0;entryDx=0;entryDy=0;" edge="1" parent="1">
                    <mxGeometry width="50" height="50" relative="1" as="geometry">
                        <mxPoint x="450" y="190" as="sourcePoint"/>
                        <mxPoint x="219.99999999999977" y="110" as="targetPoint"/>
                    </mxGeometry>
                </mxCell>
                <mxCell id="84" value="" style="endArrow=none;html=1;exitX=1;exitY=0;exitDx=0;exitDy=0;entryX=1;entryY=0;entryDx=0;entryDy=0;" edge="1" parent="1">
                    <mxGeometry width="50" height="50" relative="1" as="geometry">
                        <mxPoint x="450" y="190" as="sourcePoint"/>
                        <mxPoint x="660" y="110" as="targetPoint"/>
                    </mxGeometry>
                </mxCell>
                <mxCell id="85" value="regex(email)" style="text;html=1;strokeColor=none;fillColor=none;align=center;verticalAlign=middle;whiteSpace=wrap;rounded=0;" vertex="1" parent="1">
                    <mxGeometry x="410" y="130" width="60" height="30" as="geometry"/>
                </mxCell>
                <mxCell id="88" value="valid := True&lt;br&gt;phone_error := &quot;&quot;&lt;br&gt;return valid, phone_error" style="text;html=1;strokeColor=none;fillColor=none;align=left;verticalAlign=middle;whiteSpace=wrap;rounded=0;" vertex="1" parent="1">
                    <mxGeometry x="475" y="460" width="160" height="30" as="geometry"/>
                </mxCell>
            </root>
        </mxGraphModel>
    </diagram>
</mxfile>